<svg xmlns="http://www.w3.org/2000/svg" fill="none" viewBox="0 0 180 37">
  <path fill="#000" d="M30.84 36.1H18.02c- einschließlich.6 0-1.1-.5-1.1-1.1V1.4c0-.6.5-1.1 1.1-1.1h12.82c.6 0 1.1.5 1.1 1.1v33.6c0 .6-.5 1.1-1.1 1.1ZM59.53 36.1h-2.12c-.4 0-.7-.3-.8-.7L43.8 2.1c-.1-.4.2-.8.6-.8h2.1c.4 0 .7.3.8.7l12.8 33.4c.1.4-.2.7-.6.7ZM94.72 26.23c-1.25-.72-2.2-.9-3.75-1.2-1.35-.22-2.7-.45-3.9-.9-2.25-.82-3.15-2.25-3.15-4.2 0-2.4 1.5-4.2 4.65-4.2 2.1 0 3.6.6 4.65 1.2 1.2.75 1.5 1.95 1.5 3.15v.3H88.8v-.3c0-.6-.3-1.35-1.5-2.1-1.2-.75-2.55-1.05-3.9-1.05-1.8 0-2.55.9-2.55 2.1 0 1.2.75 1.8 2.4 2.25 1.35.3 3 .6 4.35.9 1.95.45 3.3 1.05 4.35 2.1 1.05 1.05 1.5 2.55 1.5 4.5 0 2.25-1.2 4.05-3.3 5.1-2.1 1.05-4.8 1.5-7.65 1.5-3.15 0-5.85-.75-7.95-2.25-2.1-1.5-3.15-3.75-3.15-6.6v-.3h5.85v.3c0 1.95.9 3.45 2.55 4.5 1.65 1.05 3.75 1.5 6.15 1.5 2.25 0 3.9-.45 5.1-1.35 1.2-.9 1.8-2.25 1.8-3.9.15-1.96-.75-3.3-2.4-4.2ZM122.72.3h5.85v35.8h-5.85V.3ZM149.63 36.1H136.8c-.6 0-1.1-.5-1.1-1.1V1.4c0-.6.5-1.1 1.1-1.1h12.83c.6 0 1.1.5 1.1 1.1v33.6c0 .6-.5 1.1-1.1 1.1ZM143.27 21.55V14.6h-4.35v6.95h4.35Z M178.61 36.1h-2.1c-.4 0-.7-.2-.8-.6L162.77 2.1c-.1-.4.2-.8.6-.8h2.1c.4 0 .7.3.8.7l12.95 33.4c.1.3-.1.7-.5.7Z"/>
  <path fill="url(#a)" d="M0 .3h12.82c.6 0 1.1.5 1.1 1.1v33.6c0 .6-.5 1.1-1.1 1.1H0V.3Z"/>
  <defs>
    <linearGradient id="a" x1="13.92" x2="-.08" y1=".3" y2="38.3" data-name="Linear 1" gradientUnits="userSpaceOnUse">
      <stop offset="0" stop-color="#fff"/>
      <stop offset="1"/>
    </linearGradient>
  </defs>
</svg>
