<svg aria-label="Vercel Logo" xmlns="http://www.w3.org/2000/svg" width="100" height="24" viewBox="0 0 283 64" fill="none">
  <path d="M141.04 16c-11.04 0-19 7.2-19 18s8.96 18 20 18c6.64 0 12.08-2.48 15.28-7.12l-6.32-3.68c-2.08 3.36-5.36 5.76-9.68 5.76-5.44 0-9.28-3.44-10.56-7.84h28.32v-2.32c0-10.4-8-18.48-18.08-18.48zm-10.72 12.96c1.36-4.08 5.2-6.96 9.92-6.96 4.8 0 8.56 2.88 9.84 6.96h-19.76z" fill="#000"/>
  <path d="M200.72 52V16h-5.44v35.36h-4.32V16h-5.44v36h15.2z" fill="#000"/>
  <path d="M219.2 34c0-11.28 8.4-18.48 18.72-18.48 10.4 0 18.8 7.2 18.8 18.48s-8.4 18.48-18.8 18.48c-10.32 0-18.72-7.2-18.72-18.48zm19.12 13.92c6.08 0 10.48-4.4 10.48-9.44s-4.4-9.44-10.48-9.44-10.48 4.4-10.48 9.44 4.4 9.44 10.48 9.44z" fill="#000"/>
  <path d="m272.16 33.52-5.44-17.52h-5.2l-5.44 17.52h5.04l1.2-4.16h8l1.2 4.16h5.04zm-9.04-8.88 2.32-7.92 2.32 7.92h-4.64z" fill="#000"/>
  <path d="M117.84 16h5.44v36h-5.44z" fill="#000"/>
  <path d="M93.36 24.24c-2.4-2.4-5.52-3.84-9.12-3.84-8.8 0-16.08 7.2-16.08 16.08s7.28 16.08 16.08 16.08c3.6 0 6.72-1.44 9.12-3.84l-4.32-4.32c-1.36 1.36-2.8 2.08-4.8 2.08-4.32 0-7.84-3.52-7.84-7.84s3.52-7.84 7.84-7.84c2 0 3.44.72 4.8 2.08l4.32-4.32z" fill="#000"/>
  <path d="M58.48 16h5.44v36h-5.44z" fill="#000"/>
  <path d="M24.72 16h5.44v24.72L50.56 16h6.32L36.48 35.84V52h-5.44V35.84L10.64 16h6.32l13.2 24.72V16z" fill="#000"/>
  <path d="M0 32v-2.32c0-10.4 8-18.48 18.08-18.48 11.04 0 19 7.2 19 18s-8.96 18-20 18c-6.64 0-12.08-2.48-15.28-7.12l6.32-3.68c2.08 3.36 5.36 5.76 9.68 5.76 5.44 0 9.28-3.44 10.56-7.84H0zm18.8-15.04c-4.72 0-8.56 2.88-9.84 6.96h19.76c-1.36-4.08-5.2-6.96-9.92-6.96z" fill="#000"/>
</svg>
